<mxfile host="Electron" modified="2024-04-29T17:21:14.520Z" agent="Mozilla/5.0 (Windows NT 10.0; Win64; x64) AppleWebKit/537.36 (KHTML, like Gecko) draw.io/21.7.5 Chrome/114.0.5735.289 Electron/25.8.1 Safari/537.36" etag="ng_w4eC2gl_TekeH8_w2" version="21.7.5" type="device">
  <diagram name="Страница — 1" id="_eKC1Yq2gjN5vhUV-_QZ">
    <mxGraphModel dx="2261" dy="2053" grid="1" gridSize="10" guides="1" tooltips="1" connect="1" arrows="1" fold="1" page="1" pageScale="1" pageWidth="827" pageHeight="1169" math="0" shadow="0">
      <root>
        <mxCell id="0" />
        <mxCell id="1" parent="0" />
        <mxCell id="QPCa7NaB6SAIlgkg3rmA-1" value="START" style="ellipse;whiteSpace=wrap;html=1;aspect=fixed;" parent="1" vertex="1">
          <mxGeometry x="70" y="360" width="80" height="80" as="geometry" />
        </mxCell>
        <mxCell id="QPCa7NaB6SAIlgkg3rmA-2" value="MUL 2" style="ellipse;whiteSpace=wrap;html=1;aspect=fixed;" parent="1" vertex="1">
          <mxGeometry x="190" y="360" width="80" height="80" as="geometry" />
        </mxCell>
        <mxCell id="QPCa7NaB6SAIlgkg3rmA-4" value="CNT 3A" style="ellipse;whiteSpace=wrap;html=1;aspect=fixed;" parent="1" vertex="1">
          <mxGeometry x="310" y="360" width="80" height="80" as="geometry" />
        </mxCell>
        <mxCell id="QPCa7NaB6SAIlgkg3rmA-6" value="RESULT" style="ellipse;whiteSpace=wrap;html=1;aspect=fixed;" parent="1" vertex="1">
          <mxGeometry x="430" y="360" width="80" height="80" as="geometry" />
        </mxCell>
        <mxCell id="QPCa7NaB6SAIlgkg3rmA-7" value="CNT B" style="ellipse;whiteSpace=wrap;html=1;aspect=fixed;" parent="1" vertex="1">
          <mxGeometry x="190" y="240" width="80" height="80" as="geometry" />
        </mxCell>
        <mxCell id="QPCa7NaB6SAIlgkg3rmA-8" value="LOOP" style="ellipse;whiteSpace=wrap;html=1;aspect=fixed;" parent="1" vertex="1">
          <mxGeometry x="310" y="240" width="80" height="80" as="geometry" />
        </mxCell>
        <mxCell id="QPCa7NaB6SAIlgkg3rmA-9" value="" style="endArrow=classic;html=1;rounded=0;entryX=0;entryY=0.5;entryDx=0;entryDy=0;" parent="1" target="QPCa7NaB6SAIlgkg3rmA-1" edge="1">
          <mxGeometry width="50" height="50" relative="1" as="geometry">
            <mxPoint y="400" as="sourcePoint" />
            <mxPoint x="360" y="390" as="targetPoint" />
          </mxGeometry>
        </mxCell>
        <mxCell id="QPCa7NaB6SAIlgkg3rmA-11" value="" style="endArrow=classic;html=1;rounded=0;exitX=1;exitY=0.5;exitDx=0;exitDy=0;entryX=0;entryY=0.5;entryDx=0;entryDy=0;" parent="1" source="QPCa7NaB6SAIlgkg3rmA-1" target="QPCa7NaB6SAIlgkg3rmA-2" edge="1">
          <mxGeometry width="50" height="50" relative="1" as="geometry">
            <mxPoint x="310" y="440" as="sourcePoint" />
            <mxPoint x="360" y="390" as="targetPoint" />
          </mxGeometry>
        </mxCell>
        <mxCell id="QPCa7NaB6SAIlgkg3rmA-12" value="" style="endArrow=classic;html=1;rounded=0;exitX=1;exitY=0.5;exitDx=0;exitDy=0;entryX=0;entryY=0.5;entryDx=0;entryDy=0;" parent="1" source="QPCa7NaB6SAIlgkg3rmA-2" target="QPCa7NaB6SAIlgkg3rmA-4" edge="1">
          <mxGeometry width="50" height="50" relative="1" as="geometry">
            <mxPoint x="310" y="440" as="sourcePoint" />
            <mxPoint x="360" y="390" as="targetPoint" />
          </mxGeometry>
        </mxCell>
        <mxCell id="QPCa7NaB6SAIlgkg3rmA-13" value="" style="endArrow=classic;html=1;rounded=0;entryX=0;entryY=0.5;entryDx=0;entryDy=0;exitX=1;exitY=0.5;exitDx=0;exitDy=0;" parent="1" source="QPCa7NaB6SAIlgkg3rmA-4" edge="1">
          <mxGeometry width="50" height="50" relative="1" as="geometry">
            <mxPoint x="310" y="440" as="sourcePoint" />
            <mxPoint x="430" y="400" as="targetPoint" />
          </mxGeometry>
        </mxCell>
        <mxCell id="QPCa7NaB6SAIlgkg3rmA-14" value="" style="endArrow=classic;html=1;rounded=0;entryX=0.5;entryY=1;entryDx=0;entryDy=0;exitX=0.5;exitY=0;exitDx=0;exitDy=0;" parent="1" source="QPCa7NaB6SAIlgkg3rmA-2" target="QPCa7NaB6SAIlgkg3rmA-7" edge="1">
          <mxGeometry width="50" height="50" relative="1" as="geometry">
            <mxPoint x="310" y="440" as="sourcePoint" />
            <mxPoint x="360" y="390" as="targetPoint" />
          </mxGeometry>
        </mxCell>
        <mxCell id="QPCa7NaB6SAIlgkg3rmA-15" value="" style="endArrow=classic;html=1;rounded=0;entryX=0;entryY=0.5;entryDx=0;entryDy=0;exitX=1;exitY=0.5;exitDx=0;exitDy=0;" parent="1" source="QPCa7NaB6SAIlgkg3rmA-7" target="QPCa7NaB6SAIlgkg3rmA-8" edge="1">
          <mxGeometry width="50" height="50" relative="1" as="geometry">
            <mxPoint x="310" y="440" as="sourcePoint" />
            <mxPoint x="360" y="390" as="targetPoint" />
          </mxGeometry>
        </mxCell>
        <mxCell id="QPCa7NaB6SAIlgkg3rmA-16" value="" style="endArrow=classic;html=1;rounded=0;exitX=0;exitY=1;exitDx=0;exitDy=0;entryX=1;entryY=0;entryDx=0;entryDy=0;" parent="1" source="QPCa7NaB6SAIlgkg3rmA-8" target="QPCa7NaB6SAIlgkg3rmA-2" edge="1">
          <mxGeometry width="50" height="50" relative="1" as="geometry">
            <mxPoint x="310" y="440" as="sourcePoint" />
            <mxPoint x="360" y="390" as="targetPoint" />
          </mxGeometry>
        </mxCell>
        <mxCell id="QPCa7NaB6SAIlgkg3rmA-18" value="" style="curved=1;endArrow=classic;html=1;rounded=0;exitX=0;exitY=0.5;exitDx=0;exitDy=0;" parent="1" source="QPCa7NaB6SAIlgkg3rmA-7" target="QPCa7NaB6SAIlgkg3rmA-2" edge="1">
          <mxGeometry width="50" height="50" relative="1" as="geometry">
            <mxPoint x="180" y="330" as="sourcePoint" />
            <mxPoint x="140" y="260" as="targetPoint" />
            <Array as="points">
              <mxPoint x="180" y="290" />
              <mxPoint x="150" y="330" />
            </Array>
          </mxGeometry>
        </mxCell>
        <mxCell id="QPCa7NaB6SAIlgkg3rmA-20" value="START" style="text;html=1;strokeColor=none;fillColor=none;align=center;verticalAlign=middle;whiteSpace=wrap;rounded=0;" parent="1" vertex="1">
          <mxGeometry x="-30" y="370" width="60" height="30" as="geometry" />
        </mxCell>
        <mxCell id="QPCa7NaB6SAIlgkg3rmA-22" value="mux" style="rounded=1;whiteSpace=wrap;html=1;" parent="1" vertex="1">
          <mxGeometry x="250" y="760" width="70" height="60" as="geometry" />
        </mxCell>
        <mxCell id="QPCa7NaB6SAIlgkg3rmA-23" value="" style="endArrow=none;html=1;rounded=0;entryX=0;entryY=0.25;entryDx=0;entryDy=0;" parent="1" target="QPCa7NaB6SAIlgkg3rmA-22" edge="1">
          <mxGeometry width="50" height="50" relative="1" as="geometry">
            <mxPoint x="200" y="775" as="sourcePoint" />
            <mxPoint x="440" y="480" as="targetPoint" />
          </mxGeometry>
        </mxCell>
        <mxCell id="QPCa7NaB6SAIlgkg3rmA-24" value="" style="endArrow=none;html=1;rounded=0;entryX=0;entryY=0.75;entryDx=0;entryDy=0;" parent="1" target="QPCa7NaB6SAIlgkg3rmA-22" edge="1">
          <mxGeometry width="50" height="50" relative="1" as="geometry">
            <mxPoint x="200" y="805" as="sourcePoint" />
            <mxPoint x="460" y="630" as="targetPoint" />
          </mxGeometry>
        </mxCell>
        <mxCell id="QPCa7NaB6SAIlgkg3rmA-25" value="A [0:7]" style="text;html=1;strokeColor=none;fillColor=none;align=center;verticalAlign=middle;whiteSpace=wrap;rounded=0;" parent="1" vertex="1">
          <mxGeometry x="570" y="320" width="60" height="30" as="geometry" />
        </mxCell>
        <mxCell id="QPCa7NaB6SAIlgkg3rmA-26" value="B [0:7]" style="text;html=1;strokeColor=none;fillColor=none;align=center;verticalAlign=middle;whiteSpace=wrap;rounded=0;" parent="1" vertex="1">
          <mxGeometry x="570" y="290" width="60" height="30" as="geometry" />
        </mxCell>
        <mxCell id="QPCa7NaB6SAIlgkg3rmA-29" value="reg X [0:9]" style="rounded=1;whiteSpace=wrap;html=1;" parent="1" vertex="1">
          <mxGeometry x="750" y="290" width="70" height="60" as="geometry" />
        </mxCell>
        <mxCell id="QPCa7NaB6SAIlgkg3rmA-31" value="mux" style="rounded=1;whiteSpace=wrap;html=1;" parent="1" vertex="1">
          <mxGeometry x="660" y="290" width="70" height="60" as="geometry" />
        </mxCell>
        <mxCell id="QPCa7NaB6SAIlgkg3rmA-34" value="add" style="rounded=1;whiteSpace=wrap;html=1;" parent="1" vertex="1">
          <mxGeometry x="590" y="760" width="70" height="60" as="geometry" />
        </mxCell>
        <mxCell id="QPCa7NaB6SAIlgkg3rmA-37" value="dmux" style="rounded=1;whiteSpace=wrap;html=1;" parent="1" vertex="1">
          <mxGeometry x="1040" y="190" width="70" height="60" as="geometry" />
        </mxCell>
        <mxCell id="QPCa7NaB6SAIlgkg3rmA-40" value="F [0:9]" style="text;html=1;strokeColor=none;fillColor=none;align=center;verticalAlign=middle;whiteSpace=wrap;rounded=0;" parent="1" vertex="1">
          <mxGeometry x="900" y="760" width="60" height="30" as="geometry" />
        </mxCell>
        <mxCell id="QPCa7NaB6SAIlgkg3rmA-41" value="reg S [0:5]" style="rounded=1;whiteSpace=wrap;html=1;" parent="1" vertex="1">
          <mxGeometry x="990" y="360" width="70" height="60" as="geometry" />
        </mxCell>
        <mxCell id="QPCa7NaB6SAIlgkg3rmA-44" value="shift" style="rounded=1;whiteSpace=wrap;html=1;" parent="1" vertex="1">
          <mxGeometry x="780" y="940" width="70" height="60" as="geometry" />
        </mxCell>
        <mxCell id="QPCa7NaB6SAIlgkg3rmA-47" value="adder" style="rounded=1;whiteSpace=wrap;html=1;" parent="1" vertex="1">
          <mxGeometry x="1215" y="260" width="70" height="60" as="geometry" />
        </mxCell>
        <mxCell id="QPCa7NaB6SAIlgkg3rmA-49" value="reg B [0:8]" style="rounded=1;whiteSpace=wrap;html=1;" parent="1" vertex="1">
          <mxGeometry x="1410" y="200" width="70" height="60" as="geometry" />
        </mxCell>
        <mxCell id="QPCa7NaB6SAIlgkg3rmA-51" value="mux" style="rounded=1;whiteSpace=wrap;html=1;" parent="1" vertex="1">
          <mxGeometry x="480" y="640" width="70" height="60" as="geometry" />
        </mxCell>
        <mxCell id="QPCa7NaB6SAIlgkg3rmA-53" value="" style="endArrow=none;html=1;rounded=0;entryX=0;entryY=0.25;entryDx=0;entryDy=0;exitX=1.006;exitY=0.672;exitDx=0;exitDy=0;exitPerimeter=0;" parent="1" source="QPCa7NaB6SAIlgkg3rmA-51" target="QPCa7NaB6SAIlgkg3rmA-34" edge="1">
          <mxGeometry width="50" height="50" relative="1" as="geometry">
            <mxPoint x="480" y="700" as="sourcePoint" />
            <mxPoint x="530" y="650" as="targetPoint" />
            <Array as="points">
              <mxPoint x="580" y="680" />
              <mxPoint x="580" y="775" />
            </Array>
          </mxGeometry>
        </mxCell>
        <mxCell id="QPCa7NaB6SAIlgkg3rmA-54" value="reg Y [0:2]" style="rounded=1;whiteSpace=wrap;html=1;" parent="1" vertex="1">
          <mxGeometry x="940" y="190" width="70" height="60" as="geometry" />
        </mxCell>
        <mxCell id="QPCa7NaB6SAIlgkg3rmA-56" value="mul" style="rounded=1;whiteSpace=wrap;html=1;" parent="1" vertex="1">
          <mxGeometry x="1530" y="630" width="70" height="60" as="geometry" />
        </mxCell>
        <mxCell id="QPCa7NaB6SAIlgkg3rmA-59" value="state" style="rounded=1;whiteSpace=wrap;html=1;" parent="1" vertex="1">
          <mxGeometry x="1275" y="-20" width="120" height="60" as="geometry" />
        </mxCell>
        <mxCell id="-mse4Fm2Hmg8w5qxIZF9-1" value="F [0:8]" style="text;html=1;strokeColor=none;fillColor=none;align=center;verticalAlign=middle;whiteSpace=wrap;rounded=0;" parent="1" vertex="1">
          <mxGeometry x="1610" y="275" width="60" height="30" as="geometry" />
        </mxCell>
        <mxCell id="-mse4Fm2Hmg8w5qxIZF9-2" value="mul" style="rounded=1;whiteSpace=wrap;html=1;" parent="1" vertex="1">
          <mxGeometry x="1215" y="190" width="70" height="60" as="geometry" />
        </mxCell>
        <mxCell id="-mse4Fm2Hmg8w5qxIZF9-3" value="" style="endArrow=none;html=1;rounded=0;entryX=0;entryY=0.5;entryDx=0;entryDy=0;exitX=1;exitY=0.5;exitDx=0;exitDy=0;" parent="1" source="QPCa7NaB6SAIlgkg3rmA-31" target="QPCa7NaB6SAIlgkg3rmA-29" edge="1">
          <mxGeometry width="50" height="50" relative="1" as="geometry">
            <mxPoint x="920" y="520" as="sourcePoint" />
            <mxPoint x="970" y="470" as="targetPoint" />
          </mxGeometry>
        </mxCell>
        <mxCell id="-mse4Fm2Hmg8w5qxIZF9-4" value="" style="endArrow=none;html=1;rounded=0;entryX=0;entryY=0.25;entryDx=0;entryDy=0;exitX=1;exitY=0.5;exitDx=0;exitDy=0;" parent="1" source="QPCa7NaB6SAIlgkg3rmA-26" target="QPCa7NaB6SAIlgkg3rmA-31" edge="1">
          <mxGeometry width="50" height="50" relative="1" as="geometry">
            <mxPoint x="880" y="470" as="sourcePoint" />
            <mxPoint x="930" y="420" as="targetPoint" />
          </mxGeometry>
        </mxCell>
        <mxCell id="-mse4Fm2Hmg8w5qxIZF9-5" value="" style="endArrow=none;html=1;rounded=0;entryX=0;entryY=0.5;entryDx=0;entryDy=0;exitX=1;exitY=0.5;exitDx=0;exitDy=0;" parent="1" source="QPCa7NaB6SAIlgkg3rmA-54" target="QPCa7NaB6SAIlgkg3rmA-37" edge="1">
          <mxGeometry width="50" height="50" relative="1" as="geometry">
            <mxPoint x="900" y="410" as="sourcePoint" />
            <mxPoint x="950" y="360" as="targetPoint" />
          </mxGeometry>
        </mxCell>
        <mxCell id="-mse4Fm2Hmg8w5qxIZF9-6" value="" style="endArrow=none;html=1;rounded=0;exitX=1;exitY=0.5;exitDx=0;exitDy=0;entryX=0;entryY=0.5;entryDx=0;entryDy=0;" parent="1" source="QPCa7NaB6SAIlgkg3rmA-37" target="-mse4Fm2Hmg8w5qxIZF9-35" edge="1">
          <mxGeometry width="50" height="50" relative="1" as="geometry">
            <mxPoint x="900" y="410" as="sourcePoint" />
            <mxPoint x="1170" y="190" as="targetPoint" />
          </mxGeometry>
        </mxCell>
        <mxCell id="-mse4Fm2Hmg8w5qxIZF9-7" value="" style="endArrow=none;html=1;rounded=0;entryX=1;entryY=0.75;entryDx=0;entryDy=0;exitX=0.012;exitY=0.335;exitDx=0;exitDy=0;exitPerimeter=0;" parent="1" source="QPCa7NaB6SAIlgkg3rmA-47" target="QPCa7NaB6SAIlgkg3rmA-37" edge="1">
          <mxGeometry width="50" height="50" relative="1" as="geometry">
            <mxPoint x="1110" y="430" as="sourcePoint" />
            <mxPoint x="1160" y="380" as="targetPoint" />
            <Array as="points">
              <mxPoint x="1200" y="280" />
              <mxPoint x="1200" y="260" />
              <mxPoint x="1120" y="250" />
            </Array>
          </mxGeometry>
        </mxCell>
        <mxCell id="-mse4Fm2Hmg8w5qxIZF9-8" value="" style="endArrow=none;html=1;rounded=0;entryX=1;entryY=0.25;entryDx=0;entryDy=0;exitX=-0.013;exitY=0.172;exitDx=0;exitDy=0;exitPerimeter=0;" parent="1" source="QPCa7NaB6SAIlgkg3rmA-54" target="-mse4Fm2Hmg8w5qxIZF9-9" edge="1">
          <mxGeometry width="50" height="50" relative="1" as="geometry">
            <mxPoint x="920" y="210" as="sourcePoint" />
            <mxPoint x="1160" y="380" as="targetPoint" />
            <Array as="points">
              <mxPoint x="920" y="200" />
              <mxPoint x="920" y="180" />
              <mxPoint x="1310" y="180" />
              <mxPoint x="1390" y="180" />
              <mxPoint x="1390" y="205" />
            </Array>
          </mxGeometry>
        </mxCell>
        <mxCell id="-mse4Fm2Hmg8w5qxIZF9-9" value="dmux" style="rounded=1;whiteSpace=wrap;html=1;" parent="1" vertex="1">
          <mxGeometry x="1300" y="190" width="70" height="60" as="geometry" />
        </mxCell>
        <mxCell id="-mse4Fm2Hmg8w5qxIZF9-10" value="" style="endArrow=none;html=1;rounded=0;entryX=1;entryY=0.5;entryDx=0;entryDy=0;exitX=0;exitY=0.5;exitDx=0;exitDy=0;" parent="1" source="-mse4Fm2Hmg8w5qxIZF9-9" target="-mse4Fm2Hmg8w5qxIZF9-2" edge="1">
          <mxGeometry width="50" height="50" relative="1" as="geometry">
            <mxPoint x="1080" y="320" as="sourcePoint" />
            <mxPoint x="1130" y="270" as="targetPoint" />
          </mxGeometry>
        </mxCell>
        <mxCell id="-mse4Fm2Hmg8w5qxIZF9-11" value="" style="endArrow=none;html=1;rounded=0;entryX=1;entryY=0.5;entryDx=0;entryDy=0;exitX=-0.011;exitY=0.325;exitDx=0;exitDy=0;exitPerimeter=0;" parent="1" source="QPCa7NaB6SAIlgkg3rmA-49" target="-mse4Fm2Hmg8w5qxIZF9-9" edge="1">
          <mxGeometry width="50" height="50" relative="1" as="geometry">
            <mxPoint x="1180" y="330" as="sourcePoint" />
            <mxPoint x="1230" y="280" as="targetPoint" />
            <Array as="points">
              <mxPoint x="1380" y="220" />
            </Array>
          </mxGeometry>
        </mxCell>
        <mxCell id="-mse4Fm2Hmg8w5qxIZF9-12" value="dmux" style="rounded=1;whiteSpace=wrap;html=1;" parent="1" vertex="1">
          <mxGeometry x="1300" y="260" width="70" height="60" as="geometry" />
        </mxCell>
        <mxCell id="-mse4Fm2Hmg8w5qxIZF9-13" value="" style="endArrow=none;html=1;rounded=0;entryX=0;entryY=0.5;entryDx=0;entryDy=0;exitX=1;exitY=0.5;exitDx=0;exitDy=0;" parent="1" source="QPCa7NaB6SAIlgkg3rmA-47" target="-mse4Fm2Hmg8w5qxIZF9-12" edge="1">
          <mxGeometry width="50" height="50" relative="1" as="geometry">
            <mxPoint x="1110" y="330" as="sourcePoint" />
            <mxPoint x="1160" y="280" as="targetPoint" />
          </mxGeometry>
        </mxCell>
        <mxCell id="-mse4Fm2Hmg8w5qxIZF9-14" value="" style="endArrow=none;html=1;rounded=0;entryX=0.991;entryY=0.656;entryDx=0;entryDy=0;entryPerimeter=0;exitX=0.005;exitY=0.823;exitDx=0;exitDy=0;exitPerimeter=0;" parent="1" source="QPCa7NaB6SAIlgkg3rmA-54" target="-mse4Fm2Hmg8w5qxIZF9-12" edge="1">
          <mxGeometry width="50" height="50" relative="1" as="geometry">
            <mxPoint x="920" y="240" as="sourcePoint" />
            <mxPoint x="1160" y="280" as="targetPoint" />
            <Array as="points">
              <mxPoint x="920" y="240" />
              <mxPoint x="920" y="330" />
              <mxPoint x="1390" y="330" />
              <mxPoint x="1390" y="300" />
            </Array>
          </mxGeometry>
        </mxCell>
        <mxCell id="-mse4Fm2Hmg8w5qxIZF9-16" value="" style="endArrow=none;html=1;rounded=0;entryX=1.008;entryY=0.325;entryDx=0;entryDy=0;entryPerimeter=0;exitX=0.016;exitY=0.178;exitDx=0;exitDy=0;exitPerimeter=0;" parent="1" source="-mse4Fm2Hmg8w5qxIZF9-35" target="-mse4Fm2Hmg8w5qxIZF9-17" edge="1">
          <mxGeometry width="50" height="50" relative="1" as="geometry">
            <mxPoint x="1160" y="220" as="sourcePoint" />
            <mxPoint x="1240" y="220" as="targetPoint" />
            <Array as="points">
              <mxPoint x="1120" y="200" />
              <mxPoint x="1120" y="130" />
              <mxPoint x="1200" y="130" />
              <mxPoint x="1500" y="130" />
              <mxPoint x="1590" y="130" />
              <mxPoint x="1590" y="220" />
            </Array>
          </mxGeometry>
        </mxCell>
        <mxCell id="-mse4Fm2Hmg8w5qxIZF9-17" value="dmux" style="rounded=1;whiteSpace=wrap;html=1;" parent="1" vertex="1">
          <mxGeometry x="1500" y="200" width="70" height="60" as="geometry" />
        </mxCell>
        <mxCell id="-mse4Fm2Hmg8w5qxIZF9-18" value="" style="endArrow=none;html=1;rounded=0;entryX=1;entryY=0.5;entryDx=0;entryDy=0;exitX=0;exitY=0.5;exitDx=0;exitDy=0;" parent="1" source="-mse4Fm2Hmg8w5qxIZF9-17" target="QPCa7NaB6SAIlgkg3rmA-49" edge="1">
          <mxGeometry width="50" height="50" relative="1" as="geometry">
            <mxPoint x="1270" y="320" as="sourcePoint" />
            <mxPoint x="1320" y="270" as="targetPoint" />
          </mxGeometry>
        </mxCell>
        <mxCell id="-mse4Fm2Hmg8w5qxIZF9-19" value="" style="endArrow=none;html=1;rounded=0;entryX=0.996;entryY=0.665;entryDx=0;entryDy=0;entryPerimeter=0;exitX=0;exitY=0.5;exitDx=0;exitDy=0;" parent="1" source="-mse4Fm2Hmg8w5qxIZF9-33" target="-mse4Fm2Hmg8w5qxIZF9-17" edge="1">
          <mxGeometry width="50" height="50" relative="1" as="geometry">
            <mxPoint x="1130" y="320" as="sourcePoint" />
            <mxPoint x="1250" y="190" as="targetPoint" />
            <Array as="points">
              <mxPoint x="1080" y="290" />
              <mxPoint x="1080" y="360" />
              <mxPoint x="1590" y="360" />
              <mxPoint x="1590" y="240" />
            </Array>
          </mxGeometry>
        </mxCell>
        <mxCell id="-mse4Fm2Hmg8w5qxIZF9-20" value="" style="endArrow=none;html=1;rounded=0;entryX=0.002;entryY=0.683;entryDx=0;entryDy=0;exitX=1;exitY=0.25;exitDx=0;exitDy=0;entryPerimeter=0;" parent="1" source="QPCa7NaB6SAIlgkg3rmA-41" target="-mse4Fm2Hmg8w5qxIZF9-33" edge="1">
          <mxGeometry width="50" height="50" relative="1" as="geometry">
            <mxPoint x="1150" y="370" as="sourcePoint" />
            <mxPoint x="1150" y="300" as="targetPoint" />
            <Array as="points">
              <mxPoint x="1090" y="375" />
              <mxPoint x="1090" y="300" />
            </Array>
          </mxGeometry>
        </mxCell>
        <mxCell id="-mse4Fm2Hmg8w5qxIZF9-21" value="" style="endArrow=none;html=1;rounded=0;entryX=1.012;entryY=0.321;entryDx=0;entryDy=0;exitX=-0.016;exitY=0.661;exitDx=0;exitDy=0;exitPerimeter=0;entryPerimeter=0;" parent="1" source="QPCa7NaB6SAIlgkg3rmA-41" target="-mse4Fm2Hmg8w5qxIZF9-12" edge="1">
          <mxGeometry width="50" height="50" relative="1" as="geometry">
            <mxPoint x="1260" y="360" as="sourcePoint" />
            <mxPoint x="1310" y="310" as="targetPoint" />
            <Array as="points">
              <mxPoint x="970" y="400" />
              <mxPoint x="970" y="440" />
              <mxPoint x="1040" y="440" />
              <mxPoint x="1410" y="440" />
              <mxPoint x="1410" y="280" />
            </Array>
          </mxGeometry>
        </mxCell>
        <mxCell id="-mse4Fm2Hmg8w5qxIZF9-22" value="" style="endArrow=none;html=1;rounded=0;exitX=1;exitY=0.5;exitDx=0;exitDy=0;entryX=0;entryY=0.75;entryDx=0;entryDy=0;" parent="1" source="QPCa7NaB6SAIlgkg3rmA-25" target="QPCa7NaB6SAIlgkg3rmA-31" edge="1">
          <mxGeometry width="50" height="50" relative="1" as="geometry">
            <mxPoint x="890" y="400" as="sourcePoint" />
            <mxPoint x="710" y="335" as="targetPoint" />
          </mxGeometry>
        </mxCell>
        <mxCell id="-mse4Fm2Hmg8w5qxIZF9-24" value="dmux" style="rounded=1;whiteSpace=wrap;html=1;" parent="1" vertex="1">
          <mxGeometry x="830" y="290" width="70" height="60" as="geometry" />
        </mxCell>
        <mxCell id="-mse4Fm2Hmg8w5qxIZF9-25" value="" style="endArrow=none;html=1;rounded=0;entryX=0;entryY=0.5;entryDx=0;entryDy=0;exitX=1;exitY=0.5;exitDx=0;exitDy=0;" parent="1" source="QPCa7NaB6SAIlgkg3rmA-29" target="-mse4Fm2Hmg8w5qxIZF9-24" edge="1">
          <mxGeometry width="50" height="50" relative="1" as="geometry">
            <mxPoint x="840" y="470" as="sourcePoint" />
            <mxPoint x="890" y="420" as="targetPoint" />
          </mxGeometry>
        </mxCell>
        <mxCell id="-mse4Fm2Hmg8w5qxIZF9-27" value="" style="endArrow=none;html=1;rounded=0;exitX=1;exitY=0.75;exitDx=0;exitDy=0;entryX=0;entryY=0.25;entryDx=0;entryDy=0;" parent="1" source="-mse4Fm2Hmg8w5qxIZF9-24" target="-mse4Fm2Hmg8w5qxIZF9-33" edge="1">
          <mxGeometry width="50" height="50" relative="1" as="geometry">
            <mxPoint x="1060" y="380" as="sourcePoint" />
            <mxPoint x="1140" y="280" as="targetPoint" />
          </mxGeometry>
        </mxCell>
        <mxCell id="-mse4Fm2Hmg8w5qxIZF9-29" value="" style="endArrow=none;html=1;rounded=0;entryX=1;entryY=0.25;entryDx=0;entryDy=0;exitX=0;exitY=0.5;exitDx=0;exitDy=0;" parent="1" source="QPCa7NaB6SAIlgkg3rmA-31" target="-mse4Fm2Hmg8w5qxIZF9-12" edge="1">
          <mxGeometry width="50" height="50" relative="1" as="geometry">
            <mxPoint x="1020" y="240" as="sourcePoint" />
            <mxPoint x="1070" y="190" as="targetPoint" />
            <Array as="points">
              <mxPoint x="640" y="320" />
              <mxPoint x="640" y="480" />
              <mxPoint x="1430" y="480" />
              <mxPoint x="1430" y="275" />
            </Array>
          </mxGeometry>
        </mxCell>
        <mxCell id="-mse4Fm2Hmg8w5qxIZF9-30" value="" style="endArrow=none;html=1;rounded=0;exitX=1;exitY=0.25;exitDx=0;exitDy=0;entryX=0.036;entryY=0.964;entryDx=0;entryDy=0;entryPerimeter=0;" parent="1" source="-mse4Fm2Hmg8w5qxIZF9-24" target="-mse4Fm2Hmg8w5qxIZF9-35" edge="1">
          <mxGeometry width="50" height="50" relative="1" as="geometry">
            <mxPoint x="1130" y="280" as="sourcePoint" />
            <mxPoint x="1130" y="250" as="targetPoint" />
          </mxGeometry>
        </mxCell>
        <mxCell id="-mse4Fm2Hmg8w5qxIZF9-31" value="" style="endArrow=none;html=1;rounded=0;entryX=1;entryY=0.75;entryDx=0;entryDy=0;exitX=-0.018;exitY=0.083;exitDx=0;exitDy=0;exitPerimeter=0;" parent="1" source="QPCa7NaB6SAIlgkg3rmA-31" target="-mse4Fm2Hmg8w5qxIZF9-9" edge="1">
          <mxGeometry width="50" height="50" relative="1" as="geometry">
            <mxPoint x="640" y="280" as="sourcePoint" />
            <mxPoint x="1180" y="230" as="targetPoint" />
            <Array as="points">
              <mxPoint x="640" y="295" />
              <mxPoint x="640" y="100" />
              <mxPoint x="1400" y="100" />
              <mxPoint x="1400" y="235" />
            </Array>
          </mxGeometry>
        </mxCell>
        <mxCell id="-mse4Fm2Hmg8w5qxIZF9-32" value="" style="endArrow=none;html=1;rounded=0;exitX=1;exitY=0.5;exitDx=0;exitDy=0;" parent="1" source="-mse4Fm2Hmg8w5qxIZF9-12" edge="1">
          <mxGeometry width="50" height="50" relative="1" as="geometry">
            <mxPoint x="1350" y="350" as="sourcePoint" />
            <mxPoint x="1610" y="290" as="targetPoint" />
          </mxGeometry>
        </mxCell>
        <mxCell id="-mse4Fm2Hmg8w5qxIZF9-33" value="mux" style="rounded=1;whiteSpace=wrap;html=1;" parent="1" vertex="1">
          <mxGeometry x="1120" y="260" width="70" height="60" as="geometry" />
        </mxCell>
        <mxCell id="-mse4Fm2Hmg8w5qxIZF9-34" value="" style="endArrow=none;html=1;rounded=0;entryX=0;entryY=0.5;entryDx=0;entryDy=0;exitX=1;exitY=0.5;exitDx=0;exitDy=0;" parent="1" source="-mse4Fm2Hmg8w5qxIZF9-33" target="QPCa7NaB6SAIlgkg3rmA-47" edge="1">
          <mxGeometry width="50" height="50" relative="1" as="geometry">
            <mxPoint x="1170" y="310" as="sourcePoint" />
            <mxPoint x="1220" y="260" as="targetPoint" />
          </mxGeometry>
        </mxCell>
        <mxCell id="-mse4Fm2Hmg8w5qxIZF9-35" value="mux" style="rounded=1;whiteSpace=wrap;html=1;" parent="1" vertex="1">
          <mxGeometry x="1130" y="190" width="70" height="60" as="geometry" />
        </mxCell>
        <mxCell id="-mse4Fm2Hmg8w5qxIZF9-36" value="" style="endArrow=none;html=1;rounded=0;entryX=0;entryY=0.5;entryDx=0;entryDy=0;exitX=1;exitY=0.5;exitDx=0;exitDy=0;" parent="1" source="-mse4Fm2Hmg8w5qxIZF9-35" target="-mse4Fm2Hmg8w5qxIZF9-2" edge="1">
          <mxGeometry width="50" height="50" relative="1" as="geometry">
            <mxPoint x="1170" y="310" as="sourcePoint" />
            <mxPoint x="1220" y="260" as="targetPoint" />
          </mxGeometry>
        </mxCell>
        <mxCell id="A6GCW3cZf4Xv6OR6NNDv-1" value="" style="endArrow=none;html=1;rounded=0;exitX=0.548;exitY=0;exitDx=0;exitDy=0;exitPerimeter=0;" edge="1" parent="1" source="-mse4Fm2Hmg8w5qxIZF9-9">
          <mxGeometry width="50" height="50" relative="1" as="geometry">
            <mxPoint x="1090" y="450" as="sourcePoint" />
            <mxPoint x="1338" y="30" as="targetPoint" />
          </mxGeometry>
        </mxCell>
        <mxCell id="A6GCW3cZf4Xv6OR6NNDv-2" value="" style="endArrow=none;html=1;rounded=0;entryX=0.79;entryY=1.003;entryDx=0;entryDy=0;entryPerimeter=0;exitX=0.466;exitY=-0.017;exitDx=0;exitDy=0;exitPerimeter=0;" edge="1" parent="1" source="-mse4Fm2Hmg8w5qxIZF9-17" target="QPCa7NaB6SAIlgkg3rmA-59">
          <mxGeometry width="50" height="50" relative="1" as="geometry">
            <mxPoint x="1220" y="130" as="sourcePoint" />
            <mxPoint x="1270" y="80" as="targetPoint" />
            <Array as="points">
              <mxPoint x="1530" y="70" />
              <mxPoint x="1370" y="70" />
            </Array>
          </mxGeometry>
        </mxCell>
        <mxCell id="A6GCW3cZf4Xv6OR6NNDv-4" value="" style="endArrow=none;html=1;rounded=0;exitX=0.973;exitY=0.052;exitDx=0;exitDy=0;exitPerimeter=0;" edge="1" parent="1" source="-mse4Fm2Hmg8w5qxIZF9-12">
          <mxGeometry width="50" height="50" relative="1" as="geometry">
            <mxPoint x="1380" y="150" as="sourcePoint" />
            <mxPoint x="1340" y="150" as="targetPoint" />
            <Array as="points">
              <mxPoint x="1380" y="260" />
              <mxPoint x="1380" y="150" />
            </Array>
          </mxGeometry>
        </mxCell>
        <mxCell id="A6GCW3cZf4Xv6OR6NNDv-5" value="" style="endArrow=none;html=1;rounded=0;entryX=0.042;entryY=1;entryDx=0;entryDy=0;exitX=0.565;exitY=-0.005;exitDx=0;exitDy=0;entryPerimeter=0;exitPerimeter=0;" edge="1" parent="1" source="-mse4Fm2Hmg8w5qxIZF9-35" target="QPCa7NaB6SAIlgkg3rmA-59">
          <mxGeometry width="50" height="50" relative="1" as="geometry">
            <mxPoint x="930" y="140" as="sourcePoint" />
            <mxPoint x="980" y="90" as="targetPoint" />
            <Array as="points">
              <mxPoint x="1170" y="150" />
            </Array>
          </mxGeometry>
        </mxCell>
        <mxCell id="A6GCW3cZf4Xv6OR6NNDv-6" value="" style="endArrow=none;html=1;rounded=0;exitX=0.04;exitY=0.019;exitDx=0;exitDy=0;exitPerimeter=0;" edge="1" parent="1" source="-mse4Fm2Hmg8w5qxIZF9-33">
          <mxGeometry width="50" height="50" relative="1" as="geometry">
            <mxPoint x="1070" y="210" as="sourcePoint" />
            <mxPoint x="1170" y="160" as="targetPoint" />
            <Array as="points">
              <mxPoint x="1130" y="160" />
            </Array>
          </mxGeometry>
        </mxCell>
        <mxCell id="A6GCW3cZf4Xv6OR6NNDv-7" value="" style="endArrow=none;html=1;rounded=0;entryX=0;entryY=1;entryDx=0;entryDy=0;exitX=0.5;exitY=0;exitDx=0;exitDy=0;" edge="1" parent="1" source="QPCa7NaB6SAIlgkg3rmA-37" target="QPCa7NaB6SAIlgkg3rmA-59">
          <mxGeometry width="50" height="50" relative="1" as="geometry">
            <mxPoint x="800" y="90" as="sourcePoint" />
            <mxPoint x="850" y="40" as="targetPoint" />
            <Array as="points">
              <mxPoint x="1075" y="40" />
            </Array>
          </mxGeometry>
        </mxCell>
        <mxCell id="A6GCW3cZf4Xv6OR6NNDv-8" value="" style="endArrow=none;html=1;rounded=0;entryX=0;entryY=0.5;entryDx=0;entryDy=0;exitX=0.5;exitY=0;exitDx=0;exitDy=0;" edge="1" parent="1" source="-mse4Fm2Hmg8w5qxIZF9-24" target="QPCa7NaB6SAIlgkg3rmA-59">
          <mxGeometry width="50" height="50" relative="1" as="geometry">
            <mxPoint x="800" y="90" as="sourcePoint" />
            <mxPoint x="850" y="40" as="targetPoint" />
            <Array as="points">
              <mxPoint x="865" y="10" />
            </Array>
          </mxGeometry>
        </mxCell>
        <mxCell id="A6GCW3cZf4Xv6OR6NNDv-9" value="" style="endArrow=none;html=1;rounded=0;exitX=0.5;exitY=0;exitDx=0;exitDy=0;entryX=0;entryY=0.25;entryDx=0;entryDy=0;" edge="1" parent="1" source="QPCa7NaB6SAIlgkg3rmA-31" target="QPCa7NaB6SAIlgkg3rmA-59">
          <mxGeometry width="50" height="50" relative="1" as="geometry">
            <mxPoint x="800" y="90" as="sourcePoint" />
            <mxPoint x="850" y="40" as="targetPoint" />
            <Array as="points">
              <mxPoint x="695" />
            </Array>
          </mxGeometry>
        </mxCell>
        <mxCell id="A6GCW3cZf4Xv6OR6NNDv-10" value="" style="endArrow=none;html=1;rounded=0;entryX=0.25;entryY=1;entryDx=0;entryDy=0;exitX=0.25;exitY=0;exitDx=0;exitDy=0;" edge="1" parent="1" source="-mse4Fm2Hmg8w5qxIZF9-2" target="QPCa7NaB6SAIlgkg3rmA-59">
          <mxGeometry width="50" height="50" relative="1" as="geometry">
            <mxPoint x="800" y="190" as="sourcePoint" />
            <mxPoint x="850" y="140" as="targetPoint" />
          </mxGeometry>
        </mxCell>
        <mxCell id="A6GCW3cZf4Xv6OR6NNDv-11" value="" style="endArrow=none;html=1;rounded=0;entryX=0.383;entryY=1.017;entryDx=0;entryDy=0;entryPerimeter=0;exitX=0.5;exitY=0;exitDx=0;exitDy=0;" edge="1" parent="1" source="-mse4Fm2Hmg8w5qxIZF9-2" target="QPCa7NaB6SAIlgkg3rmA-59">
          <mxGeometry width="50" height="50" relative="1" as="geometry">
            <mxPoint x="800" y="190" as="sourcePoint" />
            <mxPoint x="850" y="140" as="targetPoint" />
          </mxGeometry>
        </mxCell>
        <mxCell id="A6GCW3cZf4Xv6OR6NNDv-12" value="start" style="text;strokeColor=none;fillColor=none;align=left;verticalAlign=middle;spacingLeft=4;spacingRight=4;overflow=hidden;points=[[0,0.5],[1,0.5]];portConstraint=eastwest;rotatable=0;whiteSpace=wrap;html=1;" vertex="1" parent="1">
          <mxGeometry x="1260" y="150" width="80" height="30" as="geometry" />
        </mxCell>
        <mxCell id="A6GCW3cZf4Xv6OR6NNDv-13" value="state" style="text;strokeColor=none;fillColor=none;align=left;verticalAlign=middle;spacingLeft=4;spacingRight=4;overflow=hidden;points=[[0,0.5],[1,0.5]];portConstraint=eastwest;rotatable=0;whiteSpace=wrap;html=1;" vertex="1" parent="1">
          <mxGeometry x="1210" y="140" width="80" height="30" as="geometry" />
        </mxCell>
        <mxCell id="A6GCW3cZf4Xv6OR6NNDv-15" value="mng" style="text;strokeColor=none;fillColor=none;align=left;verticalAlign=middle;spacingLeft=4;spacingRight=4;overflow=hidden;points=[[0,0.5],[1,0.5]];portConstraint=eastwest;rotatable=0;whiteSpace=wrap;html=1;" vertex="1" parent="1">
          <mxGeometry x="1340" y="140" width="80" height="30" as="geometry" />
        </mxCell>
        <mxCell id="A6GCW3cZf4Xv6OR6NNDv-16" value="mng" style="text;strokeColor=none;fillColor=none;align=left;verticalAlign=middle;spacingLeft=4;spacingRight=4;overflow=hidden;points=[[0,0.5],[1,0.5]];portConstraint=eastwest;rotatable=0;whiteSpace=wrap;html=1;" vertex="1" parent="1">
          <mxGeometry x="1530" y="170" width="80" height="30" as="geometry" />
        </mxCell>
        <mxCell id="A6GCW3cZf4Xv6OR6NNDv-17" value="mng" style="text;strokeColor=none;fillColor=none;align=left;verticalAlign=middle;spacingLeft=4;spacingRight=4;overflow=hidden;points=[[0,0.5],[1,0.5]];portConstraint=eastwest;rotatable=0;whiteSpace=wrap;html=1;" vertex="1" parent="1">
          <mxGeometry x="1135" y="150" width="80" height="30" as="geometry" />
        </mxCell>
        <mxCell id="A6GCW3cZf4Xv6OR6NNDv-18" value="mng" style="text;strokeColor=none;fillColor=none;align=left;verticalAlign=middle;spacingLeft=4;spacingRight=4;overflow=hidden;points=[[0,0.5],[1,0.5]];portConstraint=eastwest;rotatable=0;whiteSpace=wrap;html=1;" vertex="1" parent="1">
          <mxGeometry x="1040" y="150" width="80" height="30" as="geometry" />
        </mxCell>
        <mxCell id="A6GCW3cZf4Xv6OR6NNDv-19" value="mng" style="text;strokeColor=none;fillColor=none;align=left;verticalAlign=middle;spacingLeft=4;spacingRight=4;overflow=hidden;points=[[0,0.5],[1,0.5]];portConstraint=eastwest;rotatable=0;whiteSpace=wrap;html=1;" vertex="1" parent="1">
          <mxGeometry x="827" y="250" width="80" height="30" as="geometry" />
        </mxCell>
        <mxCell id="A6GCW3cZf4Xv6OR6NNDv-22" value="mng" style="text;strokeColor=none;fillColor=none;align=left;verticalAlign=middle;spacingLeft=4;spacingRight=4;overflow=hidden;points=[[0,0.5],[1,0.5]];portConstraint=eastwest;rotatable=0;whiteSpace=wrap;html=1;" vertex="1" parent="1">
          <mxGeometry x="700" y="245" width="80" height="30" as="geometry" />
        </mxCell>
        <mxCell id="A6GCW3cZf4Xv6OR6NNDv-23" value="" style="endArrow=none;html=1;rounded=0;exitX=0.127;exitY=0.014;exitDx=0;exitDy=0;exitPerimeter=0;entryX=0.934;entryY=-0.111;entryDx=0;entryDy=0;entryPerimeter=0;" edge="1" parent="1" source="-mse4Fm2Hmg8w5qxIZF9-2" target="A6GCW3cZf4Xv6OR6NNDv-17">
          <mxGeometry width="50" height="50" relative="1" as="geometry">
            <mxPoint x="1220" y="180" as="sourcePoint" />
            <mxPoint x="1270" y="130" as="targetPoint" />
          </mxGeometry>
        </mxCell>
        <mxCell id="A6GCW3cZf4Xv6OR6NNDv-24" value="CLK" style="text;strokeColor=none;fillColor=none;align=left;verticalAlign=middle;spacingLeft=4;spacingRight=4;overflow=hidden;points=[[0,0.5],[1,0.5]];portConstraint=eastwest;rotatable=0;whiteSpace=wrap;html=1;" vertex="1" parent="1">
          <mxGeometry x="1180" y="130" width="80" height="30" as="geometry" />
        </mxCell>
      </root>
    </mxGraphModel>
  </diagram>
</mxfile>
